<?xml version="1.0" encoding="utf-8"?>
<!-- Generator: Adobe Illustrator 21.1.0, SVG Export Plug-In . SVG Version: 6.00 Build 0)  -->
<svg version="1.1" id="Слой_1" xmlns="http://www.w3.org/2000/svg" xmlns:xlink="http://www.w3.org/1999/xlink" x="0px" y="0px"
	 viewBox="0 0 400 65" style="enable-background:new 0 0 400 65;" xml:space="preserve">
<style type="text/css">
	.st0{fill:#CCCBCA;}
	.st1{fill:#60491F;}
</style>
<path class="st0" d="M200,40c-0.1-3.2-0.9-9.5-5.4-14.9c-0.8-0.9-3.2-4-12.1-7.7c-5.9-2.5-13.7-5.1-23.2-6.6
	c-8.6-1.4-16.1-1.5-22.1-1.1c-8.3,0.1-18.5,1-29.8,3.3c-11.3,2.4-21,5.6-28.7,8.8c-3.6,2.5-8.4,5.3-14.3,7.7
	c-5.8,2.4-11.2,3.7-15.4,4.4c-4.8,0.5-10,0.9-15.4,1.1c-5.1,0.2-9.8,0.2-14.3,0c-4.8-0.4-9.6-0.7-14.3-1.1c1.1,1.3,2.9,3,5.5,4.4
	c1.8,1,3.5,1.5,4.8,1.9C76.9,40.1,138.4,40.1,200,40z"/>
<path class="st0" d="M196,37c1-3.5,3.2-9.5,8.5-14.6c4.2-4,8.3-6,15.1-8.1c7-2.2,15.2-4.3,24.4-5.8c8.5-1.4,16.3-2.1,23.2-2.3
	c7.6-0.3,14.4-0.4,23.2,1.2c8.7,1.5,16.1,4.2,22,7c7.6,3.2,11.6,5.5,13.9,7c0.3,0.2,1.1,0.8,2.4,1.6c2.3,1.5,4.6,2.9,6.9,4.2
	c2.3,1.5,5.4,3.3,9.3,4.6c5.6,2,10.5,2.3,13.9,2.3c5.4,0.4,11.7,1,18.6,0c16.2-2.3,16.2-2.3,16.2-2.3l-8.1,7l-8.1,2.6
	C316.9,39.8,256.5,38.4,196,37z"/>
<path class="st1" d="M362,41c-52-0.6-104-7.7-156-6c-42.1,1.4-93.3,2.9-168,5c-3.6,0.1-38,3.7-38,8c0,1.2,2.8,2.5,4,3
	c4.7,2.1,9.3,1.3,11,1c4.9-0.8,11.7-1.4,22-1c54.1-0.9,102.4-1.5,144-2c48.1-0.6,77.7-0.8,117,0c26.8,0.5,49.2,1.3,65,2
	c6.5,1,12.3,1.6,17,2c5.9,0.5,9.6,0.7,14-1c1.6-0.6,6.1-2.3,6-4C399.8,43.6,368.8,41.1,362,41z"/>
<path class="st1" d="M174,54c18.3,0,36.7,0,55,0c1-3.2,2-6.4,3-9.6h-63.7C170.2,47.6,172.1,50.8,174,54z"/>
</svg>
