<?xml version="1.0" encoding="utf-8"?>
<!-- Generator: Adobe Illustrator 21.1.0, SVG Export Plug-In . SVG Version: 6.00 Build 0)  -->
<svg version="1.1" id="Слой_1" xmlns="http://www.w3.org/2000/svg" xmlns:xlink="http://www.w3.org/1999/xlink" x="0px" y="0px"
	 viewBox="0 0 408 409.8" style="enable-background:new 0 0 408 409.8;" xml:space="preserve">
<style type="text/css">
	.st0{fill:#0270B9;}
	.st1{fill:#FDFEFE;}
	.st2{fill:#2AA8DE;}
	.st3{fill:#CDCECE;}
	.st4{fill:#020202;}
</style>
<g>
	<path class="st0" d="M59.5,91.3v-7.1c1.4-0.1,2.9-0.3,4.3-0.3h282.9c1.1,0,2.1,0,3.2,0.1c1.4,0.2,2.4,0.5,1.2,2.2
		c-0.4,0.6-0.5,1.5-0.6,2.2c-2.7,29.8-5.3,59.5-8,89.3c-2.7,30.9-5.4,61.9-8.2,92.8c-3.1,34.6-6.2,69.2-9.2,103.8
		c-0.2,2.5-1.1,3.3-3.4,3.9c-12.9,3.5-25.9,7.1-38.8,10.6c-25.1,6.9-50.1,13.9-75.2,20.9c-1.8,0.5-3.5,0.6-5.4,0.1
		c-38-10.6-75.9-21.2-113.9-31.7c-2.1-0.6-2.9-1.4-3.1-3.7c-0.7-9.7-1.7-19.4-2.5-29.1c-2.3-25.2-4.5-50.3-6.8-75.5l-6.6-74.7
		c-2.5-28.6-5-57.2-7.7-85.7C61.2,103.4,61.5,97.2,59.5,91.3L59.5,91.3z M205.7,250.8c0,19.8,0.1,39.6,0.1,59.5
		c0,0.2-0.1,0.4-0.1,0.6c-15-2.5-30-5.3-44.9-8.5c-1.6-0.4-2.4-0.9-2.6-2.8c-0.9-7.9-2.1-15.8-2.8-23.7c-0.3-3-1.3-3.8-4.1-3.7
		c-9.5,0.1-19,0.1-28.4,0c-2.9,0-3.5,0.9-3.4,3.6c0.9,16.2,2.4,32.3,4.6,48.3c0.4,3.1,1.7,4.1,4.4,4.8c10.5,2.5,20.9,5.3,31.3,7.9
		c15.3,3.8,30.6,7.6,45.9,11.3c0,10.8,0.1,21.6-0.1,32.4c-0.1,3.6,0.9,4.2,4.3,3.2c28.8-7.9,57.7-15.6,86.6-23.4
		c6.3-1.7,6-1.8,6.4-8.2c0.6-9.8,1.6-19.6,2.5-29.4l3-32.1c0.9-10,1.6-20.1,2.5-30.2c0.9-10.4,2.1-20.8,3-31.3
		c0.9-10.3,1.6-20.6,2.5-31c1-11.2,2-22.4,3.1-33.6c0.6-6.7,1.2-13.3,1.8-20c1-11.3,1.9-22.7,3-34c0.3-2.8-0.7-3.6-3.5-3.6
		c-37.1,0.1-74.3,0.1-111.4,0c-3,0-3.8,0.9-3.8,3.8c0.1,10.3,0,20.5,0,30.8v0.2c-2.6,0-5.3-0.1-7.9-0.1c-29.5,0-59,0-88.5,0.1
		c-1.4,0-3.9-1.4-3.5,2.3c0.9,9,1.9,18,3,27c0.4,3.1,1.5,4,4.7,4c28.2,0.1,56.3,0.3,84.5,0.6c1,0,2.1,0.2,4,0.4
		c-2.1,1-3.3,1.5-4.5,2c-26.8,11.5-53.6,23-80.5,34.3c-2.9,1.2-3.9,2.8-3.5,5.9c1.1,9.3,2.3,18.5,2.7,27.9c0.2,4.2,1.7,4.8,5.4,4.7
		C149.6,250.8,177.6,250.9,205.7,250.8L205.7,250.8z"/>
	<path class="st1" d="M205.7,310.9c0-0.2,0.1-0.4,0.1-0.6c13.5-4,26.9-8,40.4-11.8c2.5-0.7,3.4-1.8,3.6-4.3
		c0.8-13.2,1.6-26.5,2.6-39.7c0.3-3.3-0.7-4.2-4-4.2c-14.2,0.1-28.4-0.1-42.6-0.2c0-36.1,0-72.1-0.1-108.2v-0.2
		c2.2,0.1,4.5,0.2,6.7,0.2h85.3c2.5,0,4.7-0.2,4.3,3.6c-1.2,10.5-2,20.9-2.9,31.4c-0.1,1.8-0.7,2.9-2.4,3.6
		c-4.7,1.9-9.5,3.9-14.2,5.9c-19.4,8.5-38.8,17-58.1,25.5c-2.2,1-4.8,1.1-7,3.2h32.7c14.1,0,28.2,0,42.3-0.1c3.1,0,4,0.9,3.5,3.8
		c-0.2,1.2-0.2,2.4-0.3,3.5c-1.2,14.8-2.4,29.6-3.7,44.4c-1.6,18.5-3.2,37-4.9,55.4c-0.3,2.8-1.4,4.9-4.8,5.7
		c-8.2,1.9-16.3,4.3-24.4,6.4c-17.3,4.5-34.5,9.5-52,13.2C205.8,335.3,205.7,323.1,205.7,310.9L205.7,310.9z"/>
	<path class="st2" d="M205.8,347.5c17.5-3.7,34.7-8.7,52-13.2c8.1-2.1,16.2-4.5,24.4-6.4c3.4-0.8,4.5-2.9,4.8-5.7
		c1.7-18.5,3.3-36.9,4.9-55.4c1.3-14.8,2.5-29.6,3.7-44.4c0.1-1.2,0.1-2.4,0.3-3.5c0.5-2.9-0.5-3.9-3.5-3.8
		c-14.1,0.2-28.2,0.1-42.3,0.1h-32.7c2.2-2.1,4.8-2.2,7-3.2c19.4-8.5,38.8-17,58.1-25.5c4.7-2.1,9.4-4,14.2-5.9
		c1.7-0.7,2.3-1.7,2.4-3.6c0.9-10.5,1.8-21,2.9-31.4c0.4-3.8-1.8-3.6-4.3-3.6h-85.3c-2.2,0-4.5-0.1-6.7-0.2c0-10.3,0.1-20.5,0-30.8
		c0-2.9,0.8-3.8,3.8-3.8c37.1,0.1,74.3,0.1,111.4,0c2.8,0,3.8,0.9,3.5,3.6c-1,11.3-2,22.7-3,34c-0.6,6.7-1.2,13.3-1.8,20
		c-1,11.2-2.1,22.4-3.1,33.6c-0.9,10.3-1.6,20.6-2.5,31s-2,20.8-3,31.3c-0.9,10-1.6,20.1-2.5,30.2c-0.9,10.7-2,21.4-3,32.1
		c-0.9,9.8-1.8,19.6-2.5,29.4c-0.4,6.3-0.1,6.5-6.4,8.2c-28.9,7.8-57.7,15.5-86.6,23.4c-3.4,0.9-4.4,0.3-4.3-3.2
		c0.2-10.8,0.1-21.6,0.1-32.4V347.5z"/>
	<path class="st3" d="M205.7,141.9c0,36.1,0,72.1,0.1,108.2c0,0.2-0.1,0.5-0.1,0.7c-28,0-56.1,0-84.1,0.2c-3.7,0-5.2-0.5-5.4-4.7
		c-0.5-9.3-1.6-18.6-2.7-27.9c-0.4-3.2,0.6-4.7,3.5-5.9c26.9-11.4,53.7-22.9,80.5-34.3c1.2-0.5,2.4-1.1,4.5-2c-1.9-0.2-3-0.4-4-0.4
		c-28.2-0.2-56.3-0.5-84.5-0.6c-3.1,0-4.3-0.8-4.7-4c-1.1-9-2.1-18-3-27c-0.3-3.6,2.1-2.3,3.5-2.3c29.5-0.1,59-0.1,88.5-0.1
		C200.4,141.8,203.1,141.9,205.7,141.9z M205.8,347.5c0,0.2,0,0.5-0.1,0.7c-15.3-3.8-30.6-7.5-45.9-11.3
		c-10.5-2.6-20.9-5.4-31.3-7.9c-2.7-0.7-4-1.7-4.4-4.8c-2.2-16-3.7-32.1-4.6-48.3c-0.1-2.7,0.5-3.7,3.4-3.6c9.5,0.2,19,0.1,28.4,0
		c2.8,0,3.8,0.8,4.1,3.7c0.7,7.9,2,15.8,2.8,23.7c0.2,1.8,1,2.4,2.6,2.8c14.9,3.2,29.9,6,44.9,8.5
		C205.7,323.1,205.8,335.3,205.8,347.5L205.8,347.5z"/>
	<path class="st2" d="M205.7,250.8c0-0.2,0-0.5,0.1-0.7c14.2,0.1,28.4,0.3,42.6,0.2c3.3,0,4.3,0.9,4,4.2c-1,13.2-1.8,26.5-2.6,39.7
		c-0.1,2.4-1.1,3.6-3.6,4.3c-13.5,3.8-27,7.8-40.4,11.8C205.8,290.5,205.7,270.6,205.7,250.8L205.7,250.8z"/>
	<path class="st4" d="M205.3,61.2c-8.2,0-16.3-0.1-24.5,0.1c-2.3,0-2.8-0.6-2.8-2.8c-0.1-10.1-0.2-10.1,9.8-10.2
		c7.8,0,15.6-0.5,23.3,0.1c5.1,0.4,4.1-2.5,4.5-5.5c0.4-3.9-2.2-3-4.2-3c-10,0-20-0.1-30,0c-2.5,0-3.4-0.4-3.3-3.2
		c0.2-8.9,0.2-17.9,0.1-26.9c0-2.4,0.5-3.4,3.2-3.4c16.2,0.1,32.4,0.1,48.6,0c2.2,0,3,0.5,2.9,2.8c-0.2,3.1-0.2,6.3,0,9.5
		c0.2,2.7-0.6,3.6-3.4,3.6c-11.1-0.1-22.1,0.1-33.2,0c-2.6,0-3.6,0.5-3.6,3.4c0,2.8,1.1,3.1,3.4,3.1c11.1,0,22.1,0.2,33.2,0.1
		c2.7,0,3.6,0.7,3.5,3.5c-0.2,8.4-0.1,16.9,0.1,25.3c0.1,2.7-0.6,3.6-3.4,3.5C221.4,61.1,213.4,61.2,205.3,61.2z M265.7,61.3
		c-8,0-16.1-0.1-24.1,0.1c-2.5,0.1-3-0.7-3-3.1c0-9.8-0.1-9.8,9.6-9.9c8.2,0,16.3-0.2,24.5,0.1c4.8,0.2,3-3.1,3.3-5.2
		c0.5-2.6-0.5-3.3-3.2-3.3c-10.4,0.1-20.8,0-31.2,0.1c-2.4,0-3.1-0.5-3.1-3c0.2-9.1,0.2-18.2,0.2-27.2c0-2.2,0.3-3.2,2.9-3.2
		c16.2,0.1,32.4,0.1,48.6,0c2.3,0,3.3,0.4,3.1,3c-0.2,3.3-0.2,6.6,0,9.9c0.2,2.6-0.8,3-3.1,3c-11.3-0.1-22.6,0.1-34,0
		c-2.6,0-3.3,0.7-3.3,3.3s0.7,3.3,3.3,3.3c11.2,0,22.4,0.3,33.6,0.2c2.8,0,3.5,0.9,3.5,3.6c-0.1,8.4-0.1,16.9,0.1,25.3
		c0.1,2.7-0.8,3.3-3.3,3.2C282,61.2,273.8,61.3,265.7,61.3z M118,33.6c0-7.9,0.1-15.8,0-23.7c0-2.4,0.3-3.4,3.1-3.4
		c15.9,0.2,31.9,0.1,47.8,0c2.3,0,3.3,0.4,3.1,3c-0.2,3.5-0.2,7.1,0,10.7c0.2,2.5-0.8,3-3.2,3c-10.4-0.1-20.8,0.1-31.2,0
		c-2.8,0-3.5,0.8-3.5,3.5c0.1,5.7,0.1,11.3-0.2,17c-0.2,2.9,0.6,3.8,3.6,3.8c10.4-0.1,20.8,0.2,31.2,0.1c2.6,0,3.5,0.7,3.2,3.3
		c-0.4,3.3,1.4,7.8-0.8,9.8c-1.9,1.7-6.2,0.5-9.5,0.6c-12.9,0-25.8-0.1-38.7,0.1c-3.7,0.1-5.2-0.5-5-4.8
		C118.3,48.9,118,41.3,118,33.6z"/>
</g>
</svg>
