<?xml version="1.0" encoding="utf-8"?>
<!-- Generator: Adobe Illustrator 21.1.0, SVG Export Plug-In . SVG Version: 6.00 Build 0)  -->
<svg version="1.1" id="Слой_1" xmlns="http://www.w3.org/2000/svg" xmlns:xlink="http://www.w3.org/1999/xlink" x="0px" y="0px"
	 viewBox="0 0 547 533" style="enable-background:new 0 0 547 533;" xml:space="preserve">
<style type="text/css">
	.st0{fill:#F15A24;}
	.st1{fill:#C69C6D;}
	.st2{fill:#C69062;}
	.st3{fill:#CC9C6D;}
	.st4{opacity:0.5;fill:none;stroke:#603813;stroke-width:5;stroke-miterlimit:10;enable-background:new    ;}
	.st5{fill:#603813;}
	.st6{fill:#42210B;stroke:#000000;stroke-width:2;stroke-miterlimit:10;}
	.st7{fill:none;stroke:#563E29;stroke-width:5;stroke-miterlimit:10;}
	.st8{fill:#C69C6D;stroke:#563E29;stroke-width:5;stroke-miterlimit:10;}
	.st9{fill:#A67C52;}
	.st10{opacity:0.5;fill:none;stroke:#754C24;stroke-width:5;stroke-miterlimit:10;enable-background:new    ;}
	.st11{fill:none;stroke:#563E29;stroke-width:3;stroke-miterlimit:10;}
	.st12{fill:#AAAAAA;}
	.st13{fill:#FCFCFC;}
</style>
<g>
	<path class="st0" d="M372.6,406.5c-1.5,4.2-0.2,6.4-0.4,23.5c-0.2,11.5-0.2,23.4,0.4,25.9H120.7c0.5-2.5,0.5-14.4,0.4-25.9
		c-0.2-14.1,0.1-21.2-0.4-23.5c-4.8-22.2-29.4-22.4-31.5-38.3c-1.5-11.8,12.1-12.2,37.4-47.7c5.2-7.2,10.6-15.6,17.9-15.3
		c6.4,0.3,8.6,6.8,13.6,10.2c18.5,12.3,50.6-36.1,88.5-34.9c39.5,1.3,69,55.8,85.1,46c5.4-3.3,5.6-11.7,11.9-12.8
		c6.6-1.1,12.9,7.1,18.7,14.5c33.9,43.3,40,47.2,37.4,54.5C395.7,394.3,378.2,391.3,372.6,406.5z"/>
	<path class="st1" d="M307.9,342.7c0.5,2.7,1.7,11.7-3.4,21.3c-4.9,9.3-12.8,13.3-15.3,14.5c-4.9,3.5-19.4,12.9-40,12.8
		c-17.2-0.2-29.6-6.9-34.9-10.2c-3-1.4-10.8-5.4-16.2-14.5c-6.1-10.3-5.2-20.4-4.8-23.4c8.5,5.1,29.1,15.9,57.5,15.7
		C279,358.7,299.5,347.8,307.9,342.7z"/>
	<circle class="st2" cx="377.7" cy="202.3" r="25.3"/>
	<circle class="st2" cx="114.4" cy="202.3" r="25.3"/>
	<circle class="st3" cx="247" cy="177.2" r="137"/>
	<path class="st4" d="M284.1,188.7c6-8.9,16.1-13.9,26.4-12.8c13,1.4,19.8,11.8,20.7,13.2"/>
	<path class="st2" d="M118.9,255c0.3,1.7,2.1,5.4,5.6,12.8c2.9,6,4.6,8.9,5.6,10.6c3.7,6.1,5.6,9.2,9,11c3.9,2,7.8,1.5,9.9,1.5
		c18.4,0,33.3-14.9,33.3-33.3c0-18.6-16.1-34-33.3-33.3C130.5,225.2,116.8,244.4,118.9,255L118.9,255z"/>
	<path class="st5" d="M187,141c22.2,12,50.4,24.9,84.3,34.9c47.1,14,88.8,17.6,120,17.9c1.3-11.8,2-25.3,1.7-40
		c-0.3-17.2-2-32.6-4.3-46c-8.8-25.4-22.9-38.9-30.6-45.1c-16.4-13.1-33.2-16.6-63.8-23c-27.6-5.7-48.3-6-52.8-6
		c-21.7-0.1-40.2,2.7-54.5,6c-5.7,0.6-17.4,2.4-30.6,8.9c-5.5,2.7-11.3,6.2-17,10.7c-19.6,15.7-27.2,34.8-29.8,42.6
		c-3.4,9.9-6.6,21.9-8.5,35.7c-3.4,25.5-0.7,47.2,2.6,62.1c4.7-9,15.6-26.7,36.6-40.9C159,146.3,177.2,142.4,187,141z"/>
	<path class="st2" d="M315.2,257.7c0,18.1,17.7,31.9,31.2,30.1c11-1.4,17.8-11.7,19.7-14.7c2.1-3.2,8.6-13.3,5.1-25.3
		c-3.1-11-13.5-19.5-24.9-20.3C330.5,226.4,315.2,240.8,315.2,257.7z"/>
	<path class="st5" d="M111.3,193.8c4.5,12,14,32,33.2,50.2c11.2,10.6,22.6,17.6,31.5,22.1c15.2-4.6,34.2-8.7,56.2-10.2
		c39.8-2.7,72.7,4.3,94.5,11.1c8.8-5.1,20.7-13.4,32.3-26.4c11.1-12.3,17.9-24.3,22.1-33.2c0.9,7.6,1.4,19.1-1.7,32.3
		c-0.9,3.7-2,7.1-10.2,26.4c-9,20.9-13.6,31.5-17,36.6c-7.7,11.5-15.7,18.9-23.8,26.4s-12.8,11.7-20.4,16.2
		c-12.3,7-23.3,9.3-32.3,11.1c-5.3,1-13.6,2.7-24.7,2.6c-8.7-0.1-16.2-1.2-22.1-2.6c-6.8-1.5-15-3.9-23.8-7.7
		c-8.9-3.7-16.3-8-22.1-11.9c-9.8-7.1-21.6-17-33.2-30.6c-16-18.9-25.3-37.5-30.6-51.1c-2.6-6.9-5.2-15.5-6.8-25.5
		C109.8,215.3,110.3,203,111.3,193.8z"/>
	<path class="st6" d="M202.6,291.6c3.7,0.1,27.8,0.2,50.9,0.2c21.1,0,41.3-0.1,44.4-0.2c-4.9,3.9-21.7,16.8-46.8,17
		C225,308.9,207.3,295.5,202.6,291.6L202.6,291.6z"/>
	<path class="st7" d="M336.4,209.5c-2.9-12.6-15-21.2-28-20.3c-11.7,0.8-21.9,9-24.3,20.3"/>
	<path class="st8" d="M156.4,209.1c2.8-12.1,15.3-20.5,28.9-20c12.8,0.5,23.7,8.8,26.4,20"/>
	<path class="st9" d="M217.7,234.8h63 M217.7,239h63c5.4,0,5.4-8.5,0-8.5h-63C212.2,230.5,212.2,239,217.7,239z"/>
	<path class="st10" d="M156.4,188.7c0.9-1.1,11.2-13.9,28.1-12.8c14.3,0.9,22.6,11.1,23.8,12.8"/>
	<path class="st1" d="M397.3,386.1c3.4,9.4,6.8,20.5,9.4,33.2c2.7,13.7,3.9,26,4.3,36.6h-38.3v-10c-1.4-5.7-2.7-12.9-3-21.3
		c-0.3-11.1,1.3-20.5,3-27.4c4.1-1.8,8.3-3.7,12.3-5.5C389,389.9,393.1,388,397.3,386.1z M92.6,369.9c-3.4,13.8-6.5,29.4-8.5,46.8
		c-1.6,14-2.4,27.2-2.6,39.2h39.2c0.2-3.1,0.3-6.2,0.4-9.4c1-10,1.6-21,1.7-32.8c0.1-9.3-0.3-18-0.8-26.2c-4.9-3-9.8-5.9-14.7-8.9
		C102.4,375.8,97.5,372.9,92.6,369.9L92.6,369.9z"/>
	<path class="st11" d="M240.2,229.8c1.3-0.3,3.1-0.7,5.2-1.9c2.5-1.4,4-3.3,4.8-4.4c1.1,1.3,2.8,2.8,5,4.2c2.4,1.5,4.7,2.4,6.4,2.9"
		/>
	<path class="st5" d="M150.2,38.9c7.3,0.9,14.6,2,22,2.9c0.9-7.9,1.7-15.9,2.6-23.8c4.1,7.2,8.3,14.5,12.3,21.7
		c2.1-3.8,4.2-7.7,6.3-11.6c1.4,4.6,2.9,9.1,4.3,13.7c-12.1,2.8-24.3,5.7-36.3,8.5C157.6,46.5,153.8,42.8,150.2,38.9z"/>
</g>
<rect y="455.9" class="st12" width="547" height="77.1"/>
<path class="st13" d="M418.3,494.5H81.7c-5.4,0-9.7-4.4-9.7-9.7v-13c0-5.4,4.4-9.7,9.7-9.7h336.5c5.4,0,9.7,4.4,9.7,9.7v13
	C428,490.1,423.6,494.5,418.3,494.5z"/>
<path class="st13" d="M535.5,467.4H422.3c-6.3,0-11.5-5.2-11.5-11.5v-5.5c0-6.3,5.2-11.5,11.5-11.5h113.2c6.3,0,11.5,5.2,11.5,11.5
	v5.5C547,462.2,541.8,467.4,535.5,467.4z"/>
</svg>
