<svg id="Слой_1" xmlns="http://www.w3.org/2000/svg" viewBox="0 0 547 533"><style>.st0{fill:#f15a24}.st1{fill:#c69c6d}.st2{fill:#c69062}.st3{fill:#cc9c6d}.st4{opacity:.5;fill:none;stroke:#603813;stroke-width:5;stroke-miterlimit:10;enable-background:new}.st5{fill:#603813}.st6,.st7,.st8{fill:#42210b;stroke:#000;stroke-width:2;stroke-miterlimit:10}.st7,.st8{fill:none;stroke:#563e29;stroke-width:5}.st8{fill:#c69c6d}.st9{fill:#a67c52}.st10,.st11{fill:none;stroke-miterlimit:10}.st10{opacity:.5;enable-background:new;stroke:#754c24;stroke-width:5}.st11{stroke:#563e29;stroke-width:3}</style><switch><g><path class="st0" d="M423.5 474.5c-1.8 4.9-.2 7.5-.5 27.6-.2 13.5-.2 27.5.5 30.4h-296c.6-2.9.6-16.9.5-30.4-.2-16.6.1-24.9-.5-27.6-5.6-26.1-34.6-26.3-37-45-1.8-13.9 14.2-14.3 44-56 6.1-8.5 12.4-18.3 21-18 7.5.3 10.1 8 16 12 21.7 14.5 59.5-42.4 104-41 46.4 1.5 81.1 65.6 100 54 6.4-3.9 6.6-13.8 14-15 7.8-1.3 15.2 8.4 22 17 39.8 50.9 47 55.4 44 64-4.8 13.6-25.4 10.1-32 28z"/><path class="st1" d="M347.5 399.5c.6 3.2 2 13.8-4 25-5.8 10.9-15 15.6-18 17-5.7 4.1-22.8 15.2-47 15-20.2-.2-34.8-8.1-41-12-3.5-1.6-12.7-6.3-19-17-7.2-12.1-6.1-24-5.6-27.5 10 6 34.2 18.7 67.6 18.5 33.1-.2 57.1-13 67-19z"/><circle class="st2" cx="429.5" cy="234.5" r="29.7"/><circle class="st2" cx="120.1" cy="234.5" r="29.7"/><circle class="st3" cx="276" cy="205" r="161"/><path class="st4" d="M319.5 218.5c7-10.5 18.9-16.3 31-15 15.3 1.6 23.3 13.9 24.3 15.5"/><path class="st2" d="M125.5 296.5c.4 2 2.5 6.3 6.6 15 3.4 7 5.4 10.5 6.6 12.5 4.4 7.2 6.6 10.8 10.6 12.9 4.6 2.4 9.2 1.8 11.6 1.8 21.6 0 39.1-17.5 39.1-39.1 0-21.9-18.9-39.9-39.1-39.1-21.8.9-37.9 23.5-35.4 36z"/><path class="st5" d="M205.5 162.5c26.1 14.1 59.2 29.2 99 41 55.3 16.4 104.3 20.7 141 21 1.5-13.9 2.3-29.7 2-47-.4-20.2-2.4-38.3-5-54-10.3-29.9-26.9-45.7-36-53-19.3-15.4-39-19.5-75-27-32.4-6.7-56.7-7-62-7-25.5-.1-47.2 3.2-64 7-6.7.7-20.5 2.8-36 10.4-6.5 3.2-13.3 7.3-20 12.6-23 18.4-31.9 40.9-35 50-4 11.6-7.8 25.7-10 42-4 30-.8 55.4 3 73 5.5-10.6 18.3-31.4 43-48 22.1-14.8 43.4-19.4 55-21z"/><path class="st2" d="M356.1 299.6c0 21.3 20.8 37.5 36.7 35.4 12.9-1.7 20.9-13.8 23.1-17.3 2.5-3.8 10.1-15.6 6-29.7-3.7-12.9-15.9-22.9-29.2-23.8-18.7-1.3-36.6 15.6-36.6 35.4z"/><path class="st5" d="M116.5 224.5c5.3 14.1 16.4 37.6 39 59 13.2 12.5 26.5 20.7 37 26 17.9-5.4 40.2-10.2 66-12 46.8-3.2 85.4 5.1 111 13 10.3-6 24.3-15.8 38-31 13-14.4 21-28.5 26-39 1 8.9 1.6 22.4-2 38-1 4.3-2.3 8.4-12 31-10.6 24.6-16 37-20 43-9 13.5-18.5 22.2-28 31s-15 13.8-24 19c-14.4 8.2-27.4 10.9-38 13-6.2 1.2-16 3.2-29 3-10.2-.1-19-1.4-26-3-8-1.8-17.6-4.6-28-9-10.5-4.4-19.1-9.4-26-14-11.5-8.3-25.4-20-39-36-18.8-22.2-29.7-44.1-36-60-3.1-8.1-6.1-18.2-8-30-2.7-16.7-2.2-31.2-1-42z"/><path class="st6" d="M223.8 339.5c4.4.1 32.7.2 59.8.2 24.8 0 48.5-.1 52.2-.2-5.7 4.6-25.5 19.7-55 20-30.7.3-51.5-15.5-57-20z"/><path class="st7" d="M381 243c-3.4-14.8-17.6-24.9-32.9-23.9-13.8.9-25.7 10.6-28.6 23.9"/><path class="st8" d="M169.5 242.5c3.3-14.2 18-24.1 34-23.5 15 .6 27.9 10.3 31 23.5"/><path class="st9" d="M241.5 272.7h74M241.5 277.7h74c6.4 0 6.4-10 0-10h-74c-6.4 0-6.4 10 0 10z"/><path class="st10" d="M169.5 218.5c1.1-1.3 13.2-16.3 33-15 16.8 1.1 26.5 13.1 28 15"/><path class="st1" d="M452.5 450.5c4 11 8 24.1 11 39 3.2 16.1 4.6 30.6 5 43h-45v-11.8c-1.7-6.7-3.2-15.2-3.5-25-.4-13.1 1.5-24.1 3.5-32.2 4.8-2.1 9.7-4.3 14.5-6.5 4.8-2.1 9.6-4.3 14.5-6.5zM94.5 431.5c-4 16.2-7.6 34.6-10 55-1.9 16.5-2.8 32-3 46h46c.2-3.7.4-7.3.5-11 1.2-11.8 1.9-24.7 2-38.5.1-10.9-.3-21.2-.9-30.8-5.7-3.5-11.5-6.9-17.3-10.4-5.7-3.4-11.5-6.8-17.3-10.3z"/><path class="st11" d="M268 266.8c1.5-.3 3.7-.8 6.1-2.2 2.9-1.7 4.7-3.9 5.6-5.2 1.3 1.5 3.3 3.3 5.9 4.9 2.8 1.8 5.5 2.8 7.5 3.4"/><path class="st5" d="M162.2 42.6c8.6 1.1 17.2 2.3 25.8 3.4 1-9.3 2-18.7 3-28 4.8 8.5 9.7 17 14.5 25.5 2.5-4.5 4.9-9 7.4-13.6 1.7 5.4 3.4 10.7 5.1 16.1-14.2 3.3-28.5 6.7-42.7 10-4.4-4.5-8.8-8.9-13.1-13.4z"/></g></switch></svg>