<?xml version="1.0" encoding="utf-8"?>
<!-- Generator: Adobe Illustrator 21.1.0, SVG Export Plug-In . SVG Version: 6.00 Build 0)  -->
<svg version="1.1" id="Слой_1" xmlns="http://www.w3.org/2000/svg" xmlns:xlink="http://www.w3.org/1999/xlink" x="0px" y="0px"
	 viewBox="0 0 361 361.7" style="enable-background:new 0 0 361 361.7;" xml:space="preserve">
<style type="text/css">
	.st0{fill:#D34C4A;}
	.st1{fill:#EDEDED;}
</style>
<g>
	<path class="st0" d="M108.2,185.8c-3-29.1-6.1-58.2-9.2-88c8.5,3.5,16.9,4.8,25.4,5.8c12.8,1.6,25.7,2.3,38.6,2.5
		c23.5,0.3,47,0.3,70.4-2.5c7.9-1,15.8-1.9,23.2-4.9c3.2-1.3,3.3-0.1,3,2.5c-1.4,11.7-2.7,23.5-4,35.2c-2.1,18.8-4.2,37.6-6.2,56.5
		c-0.2,2.3-1.2,4-2.8,5.5c-4.9,4.4-10.2,8.1-17.1,9.3c-0.5-2.2,1.2-2.8,2.1-3.8c2.8-3.1,5.7-6.1,8.4-9.2c1.8-2.2,3.3-4.6,3.8-7.5
		c1-5.6-2.5-8.9-8-7.6c-4.4,1.1-7.9,3.7-11.5,6.2c-1.1-0.8-0.5-1.9-0.8-2.7c-0.4-1.1-1-1.9-2.2-2.1c-1.3-0.2-2.1,0.6-2.5,1.6
		c-1,2.5-1.8,5-2.7,7.6c-2.8,8-8.1,13.5-16.4,15.8c-3.5,1-4.2,0.5-3.5-3.1c1.1-5.4,3.2-10.5,5.4-15.6c3.2-7.6,6.4-15.1,9.7-22.6
		c1.2-2.9,2.1-5.8,2.4-8.9c0.2-1.5-0.1-3.1-1.7-3.8c-1.8-0.8-2.6,0.8-3.4,2c-0.8,1.2-1.7,2.5-2.2,3.8c-5.6,13.9-12,27.6-15.8,42.2
		c-1,3.9-3.6,5.9-7,7c-3.1,1-4.7-0.2-4.6-3.5c0.1-3,1.2-5.8,2.2-8.5c1.3-3.5,2.8-7,4.1-10.5c0.5-1.4,1.6-3.5-0.1-4.4
		c-2-1-3,1.2-4,2.5c-2.2,3.1-3.6,6.6-5.2,10c-2.4,5.6-6.5,9.8-11.2,13.5c-1.3,1.1-2.9,2.4-4.7,1.1c-1.5-1.1-1-2.9-0.6-4.5
		c1.4-5.5,3.9-10.6,6.2-15.7c1-2.2,3.3-5.2,0.4-6.8c-2.7-1.5-3.8,2.2-5,4c-4.1,6.4-6.9,13.4-8.1,20.9c-0.5,3.1-0.7,6.4,2.3,8.4
		c3,2.1,6.4,1.5,9.6-0.1c3.3-1.7,5.4-4.6,7.9-7.5c2.1,8,5.9,9.6,13.3,5.7c1.8-1,3-1.7,4.6,0.5c1.5,2,3.9,1.9,6.3,1.3
		c4.2-1.1,7.4-4,11.9-6.2c-1.6,5.8-4.2,10.5-6.3,15.4c-1.4,3.3-3,6.6-3.7,10.2c-0.3,1.4-0.6,3.2,1.1,3.9c1.7,0.7,2.8-0.5,3.7-1.7
		c3.7-4.9,5.9-10.5,8.1-16.1c2.9-7.4,5.9-14.7,10.1-21.5c2.8-4.5,6.1-8.6,11.4-10.4c1.5-0.5,3.7-1.5,4.5-0.3c1.2,1.6-1,2.7-2,3.8
		c-3.2,3.5-6.8,6.5-9.6,10.3c-3.6,4.8-4.5,8.9-2.1,11.4c3.5,3.7,7.5,1.7,11.2,0.4c2.3-0.8,4.4-2,6.5-3.2c1.9-1.1,3.8-2.4,6.2-4.1
		c0.1,6.8-1.1,12.9-1.8,19.1c-1.4,14-3.2,28-4.6,42.1c-0.2,2.4-1.2,3.6-3.2,4.6c-9.9,4.9-20.5,7.2-31.4,8.5
		c-23.9,2.9-47.7,2.7-71.3-2.9c-5.5-1.3-10.8-3.2-15.8-5.8c-1.9-1-2.8-2.2-3-4.3c-1.7-16.6-3.5-33.1-5.1-49.7
		c-0.1-1.1-1.2-3.6,1.7-2.7c6.9,2.1,12-1.2,16.8-5.3c1.7-1.5,3.3-3,5.4-4.9c0.1,3.6-1.4,6-2,8.7c-0.8,3-2,5.9-1.9,9
		c0,1.3,0.2,2.5,1.5,3c1.6,0.6,2.6-0.5,3.3-1.6s1.4-2.3,1.8-3.6c3.9-13,7.7-26,11.4-39c0.7-2.4,1.6-5.7-1.6-6.6
		c-3.2-0.9-4.2,2.6-4.7,4.9c-2.2,8.6-6.2,16-13,21.7c-2.5,2.1-4.9,4.3-8,5.3c-3.6,1.2-5.7,0.1-6.8-3.5c-1.2-3.8-0.5-7.5,0.5-11.1
		c3-11.5,8.4-21.8,15.5-31.2c1.6-2,3.5-3.7,5.8-4.9c5.8-3.3,8.8-2.5,12.2,3.3c0.5,0.9,1.1,1.9,1.7,2.7c1.1,1.5,2.7,1.7,4.3,1
		c1.8-0.8,2-2.3,1.6-4.1c-1.7-8.3-11.5-14.1-19.5-11.5c-5.6,1.8-9.7,5.6-13.3,10.1c-6.1,7.5-10,16.2-13.6,25.1
		c-0.5,1.3-1.1,2.7-1.6,4C108.7,185.8,108.5,185.8,108.2,185.8L108.2,185.8z"/>
	<path class="st0" d="M121.1,276.9c39,11.3,77.1,11.2,116.2-0.2c-2.9,5-5.3,9.3-7.8,13.4c-1.2,1.9-1.8,3.8-1.9,6
		c-1,17.3-2.2,34.6-3,51.9c-0.2,4.2-2.1,6.4-5.6,7.9c-5.7,2.4-11.8,3.6-17.9,4.4c-17.6,2.2-35.1,2-52.4-1.9c-1-0.2-2.1-0.5-3.1-0.8
		c-8.8-2.7-9.7-3.6-10.4-12.7c-1.1-14.1-2-28.1-2.8-42.2c-0.3-5.2-1.1-10-4.3-14.4C125.6,285,123.6,281.2,121.1,276.9L121.1,276.9z"
		/>
	<path class="st0" d="M180.1,102.6c-22.2-0.1-44.3-0.7-66.2-4.7c-4.4-0.8-8.7-1.8-12.7-3.8c-1.2-0.6-2.5-1.3-2.6-2.8
		c-0.1-1.8,1.3-2.5,2.7-3.2c6.5-3.2,13.6-4.2,20.6-5.2c24.4-3.2,49-3.9,73.6-3.1c2.7,0.1,3.8-0.7,4.4-3.2c2.2-9.3,4.5-18.5,6.7-27.8
		c0.5-2.3,1.6-4.1,3.2-5.8c13-13.6,25.9-27.3,38.7-41c2-2.2,3.9-2.5,6.3-1.1c1.9,1.1,3.5,2.5,4.8,4.2c1.7,2.2,1.9,4-0.3,6.3
		c-12,12.4-23.7,24.9-35.6,37.3c-2,2.1-3.5,4.3-4.1,7.2c-1.6,6.9-3.2,13.9-5.2,20.7c-1.1,3.6,0.2,4.3,3.5,4.5
		c10.9,0.6,21.7,1.7,32.3,4.2c2.9,0.7,5.7,1.5,8.4,2.8c1.3,0.7,2.8,1.4,2.8,3.1s-1.4,2.5-2.8,3.1c-4,2-8.4,2.9-12.7,3.7
		C224.2,101.9,202.2,102.5,180.1,102.6L180.1,102.6z M201.5,97.2c3.8-0.2,6.8,0.3,9.6-0.8c1.1-0.4,1.9-1.2,1.2-2.4s-1.3-0.5-2.4,0
		c-4.5,2-9.4,1.2-14.1,0.6c-0.9-0.1-1.7-2.6-2.7-0.5c-0.8,1.8,1,2.7,2.4,2.9C197.9,97.2,200.1,97.2,201.5,97.2z"/>
	<path class="st1" d="M201.5,97.2c-1.4-0.1-3.7,0-5.9-0.3c-1.4-0.2-3.2-1.1-2.4-2.9c1-2.1,1.7,0.4,2.7,0.5c4.7,0.7,9.6,1.4,14.1-0.6
		c1.1-0.5,1.7-1.2,2.4,0s-0.1,2-1.2,2.4C208.3,97.5,205.3,97.1,201.5,97.2L201.5,97.2z"/>
</g>
</svg>
