<?xml version="1.0" encoding="utf-8"?>
<!-- Generator: Adobe Illustrator 21.1.0, SVG Export Plug-In . SVG Version: 6.00 Build 0)  -->
<svg version="1.1" id="Слой_1" xmlns="http://www.w3.org/2000/svg" xmlns:xlink="http://www.w3.org/1999/xlink" x="0px" y="0px"
	 viewBox="0 0 400 400" style="enable-background:new 0 0 400 400;" xml:space="preserve">
<style type="text/css">
	.st0{fill:#E34E27;}
	.st1{fill:#030303;}
	.st2{fill:#F06529;}
	.st3{fill:#EAE8E8;}
	.st4{fill:#FEFDFD;}
	.st5{fill:#FEFEFE;}
</style>
<g>
	<path class="st0" d="M198.4,400.8c-8.4-3.5-17.3-5.2-26-7.7c-28.1-7.9-56.3-15.7-84.5-23.4c-2.7-0.7-3.4-2-3.6-4.5
		c-2.4-28.2-5-56.5-7.5-84.7c-2.2-24.7-4.4-49.5-6.6-74.2c-2.5-27.6-5-55.2-7.4-82.8c-1.2-13.5-2.3-27-3.6-40.4
		c-0.3-2.8,0.2-3.8,3.4-3.8c92,0.1,184.1,0.1,276.1,0c2.9,0,3.8,0.7,3.5,3.7c-2.1,22.1-4,44.3-5.9,66.5c-2,22-3.9,44-5.9,66.1
		c-2.2,24.9-4.4,49.7-6.6,74.6c-1.9,21.6-3.9,43.3-5.8,64.9c-0.3,3.5-0.8,7-0.8,10.5c-0.1,2.5-1,3.6-3.5,4.2
		c-30.1,8.2-60.1,16.6-90.1,25c-7.1,2-14.3,3.5-21.2,6.2C201,400.8,199.7,400.8,198.4,400.8L198.4,400.8z M200.8,302.1
		c-12.7-2.8-25.1-6.7-37.6-9.8c-2.1-0.5-2.1-1.8-2.3-3.5c-0.7-7.6-1.4-15.3-2-22.9c-0.2-1.9-0.9-2.6-2.9-2.6
		c-10.1,0.1-20.3,0.1-30.4,0c-2.4,0-2.7,0.8-2.4,3c0.5,4.1,0.7,8.3,1.1,12.4c1.1,12.6,2.2,25.1,3.3,37.7c0.2,1.8,0.6,3.1,2.7,3.7
		c23.5,6.4,47.1,12.9,70.6,19.4c0,10.9,0.1,21.9,0,32.8c0,3,0.6,3.9,3.8,2.9c14.9-4.3,29.9-8.3,44.9-12.4
		c14.2-3.9,28.4-7.9,42.7-11.8c1.4-0.4,2.3-0.7,2.4-2.4c0.7-8,1.6-15.9,2.3-23.9c0.6-7.1,1.1-14.2,1.7-21.3c1-10.7,2-21.3,3-32
		c0.6-6.8,1.1-13.7,1.7-20.5c0.9-10,2.1-20,3-30.1c0.9-9.9,1.6-19.8,2.4-29.8c1-11.3,2-22.6,3.1-34c0.6-6.4,1.3-12.9,1.7-19.3
		c0.7-10.2,1.9-20.3,2.9-30.5c0.3-2.6,0-4.3-3.6-4.3c-36.2,0.1-72.4,0.1-108.5,0c-3.1,0-3.6,1.2-3.6,3.9c0.1,10.4,0.1,20.8,0.1,31.2
		c-1.6,0.1-3.1,0.2-4.7,0.2h-80.8c-2.4,0-3.7,0.1-3.4,3.3c3.2,33.7,6.2,67.3,9.1,101c0.2,2.7,1.1,3.5,3.7,3.4
		c7.8-0.2,15.6-0.1,23.4-0.1c17.6,0,35.1,0.1,52.7,0.2C200.8,264.8,200.8,283.5,200.8,302.1L200.8,302.1z"/>
	<path class="st1" d="M264.1,0.8c0,17.2,0.1,34.4,0.2,51.5c0,2.1-0.7,2.6-2.7,2.5c-4.2-0.1-8.3-0.2-12.5,0c-2.6,0.1-3-0.9-2.9-3.2
		c0.1-7.3,0-14.5-0.6-22.2c-3.8,5.8-7.7,11.7-11.8,18c-4-6.1-7.8-11.9-11.7-17.8c-1.5,1.2-0.8,2.6-0.8,3.8c-0.1,6.1-0.2,12.2,0,18.4
		c0.1,2.5-0.7,3.1-3.1,3c-3.8-0.2-7.6-0.2-11.3,0c-2.7,0.2-3.5-0.6-3.5-3.4c0.1-15.5,0.1-31,0-46.5c0-1.4,0.4-2.9-0.4-4.2h19.5
		c3.7,6.1,7.3,12.2,11.2,18.7c4-6.6,7.8-12.6,11.5-18.7C251.6,0.8,257.8,0.8,264.1,0.8z M138.3,0.8c0,16.8-0.2,33.5,0,50.3
		c0,3.1-0.9,4-3.9,3.8c-3.9-0.3-7.8-0.2-11.7,0c-2.3,0.1-2.9-0.8-2.8-2.9c0.1-4.3,0-8.6,0.1-12.9c0.1-1.9-0.5-2.7-2.4-2.4h-0.4
		c-4.4,0.1-10.2-1.5-12.8,0.7c-2.7,2.2-0.9,8.3-0.7,12.6c0.2,3.8-0.7,5.4-4.8,4.9c-3.3-0.4-6.8-0.3-10.1,0c-2.7,0.2-3.5-0.6-3.5-3.4
		c0.1-15.5,0.1-30.9,0.1-46.4c0-1.4-0.1-2.9-0.1-4.3h18c0.8,5,0.2,10.1,0.3,15.1c0,2.2,0.7,2.9,2.9,2.8c3.6-0.2,7.3-0.2,10.9,0
		c2.2,0.1,2.9-0.6,2.9-2.8c0-5-0.5-10.1,0.3-15.1L138.3,0.8L138.3,0.8z M196.1,0.8c-0.8,4.8-0.4,9.6-0.3,14.3c0,2.8-0.4,4-3.6,3.7
		c-3-0.3-6,0.2-8.9-0.1c-3.1-0.3-3.6,0.9-3.5,3.7c0.2,9.7,0,19.5,0.1,29.2c0,2.4-0.5,3.4-3.1,3.3c-4.1-0.2-8.3-0.2-12.5,0
		c-2.3,0.1-2.8-0.8-2.7-2.9c0.1-9.7-0.1-19.5,0.1-29.2c0.1-3.1-0.5-4.5-3.9-4.1c-3,0.3-6-0.1-8.9,0.1c-2.8,0.3-3.1-0.9-3.2-3.3
		c0-4.9,0.5-9.8-0.3-14.7L196.1,0.8L196.1,0.8z M291.4,0.8c0,10.9,0.1,21.8,0,32.7c0,2.4,0.4,3.4,3.1,3.3c6.5-0.2,13,0,19.5-0.1
		c2.1,0,3,0.4,2.9,2.7c-0.2,4.1-0.2,8.3,0,12.5c0.1,2.5-0.8,3-3.1,3c-12.5-0.1-24.9-0.1-37.4,0c-2.8,0-3.4-0.9-3.4-3.5
		c0.1-15.5,0.1-30.9,0-46.4c0-1.4,0.4-2.9-0.4-4.2C272.6,0.8,291.4,0.8,291.4,0.8z"/>
	<path class="st2" d="M200.8,138.2c0-10.4,0.1-20.8-0.1-31.2c0-2.7,0.4-3.9,3.6-3.9c36.2,0.1,72.4,0.1,108.5,0
		c3.6,0,3.8,1.7,3.6,4.3c-1,10.2-2.2,20.3-2.9,30.5c-0.4,6.5-1.1,12.9-1.7,19.3c-1.1,11.3-2.1,22.6-3.1,34
		c-0.9,9.9-1.5,19.8-2.4,29.8s-2,20-3,30.1c-0.6,6.8-1.1,13.7-1.7,20.5c-1,10.7-2,21.3-3,32c-0.6,7.1-1.1,14.2-1.7,21.3
		c-0.7,8-1.6,15.9-2.3,23.9c-0.1,1.7-1,2-2.4,2.4c-14.2,3.9-28.4,7.9-42.7,11.8c-15,4.1-30,8.2-44.9,12.4c-3.2,0.9-3.9,0.1-3.8-2.9
		c0.1-10.9,0-21.9,0-32.8v-0.3c1.4-0.3,2.8-0.5,4.2-0.8c21-5.8,42-11.7,63.1-17.3c4.4-1.2,5.8-3.2,6.1-7.6c1-14.1,2.4-28.2,3.7-42.3
		c1.7-19.4,3.4-38.8,5.1-58.3c0.2-2,0-2.8-2.2-2.8c-26.7,0.1-53.3,0.1-80,0.2l0.1-0.3v-35.7l-0.1-0.4c27.8,0.1,55.6,0.1,83.5,0.2
		c2.3,0,2.4-1.2,2.5-2.9c0.8-9.8,1.5-19.7,2.6-29.5c0.3-3-0.6-3.4-3.2-3.4c-22.2,0.1-44.5,0-66.7,0.1c-6.2,0-12.5,0.1-18.7,0.2
		L200.8,138.2L200.8,138.2z"/>
	<path class="st3" d="M200.8,246.2c-17.6-0.1-35.1-0.1-52.7-0.2c-7.8,0-15.6-0.1-23.4,0.1c-2.6,0.1-3.5-0.7-3.7-3.4
		c-2.9-33.7-6-67.3-9.1-101c-0.3-3.2,1-3.3,3.4-3.3c26.9,0.1,53.9,0,80.8,0c1.6,0,3.1-0.1,4.7-0.2l-0.1,0.4v35.3l0.1,0.4
		c-15.8-0.1-31.7-0.1-47.5-0.2c-2.2,0-2.6,0.8-2.4,2.8c1,10.2,2,20.4,2.9,30.6c0.2,1.9,0.5,2.8,2.6,2.7c14.8-0.1,29.6-0.1,44.4-0.2
		l-0.1,0.3v35.5L200.8,246.2L200.8,246.2z M200.8,339.5c-23.5-6.5-47-13-70.6-19.4c-2.1-0.6-2.5-1.9-2.7-3.7
		c-1.1-12.6-2.2-25.1-3.3-37.7c-0.4-4.1-0.6-8.3-1.1-12.4c-0.3-2.1,0-3,2.4-3c10.1,0.1,20.3,0.1,30.4,0c2,0,2.7,0.7,2.9,2.6
		c0.6,7.6,1.4,15.3,2,22.9c0.1,1.6,0.2,2.9,2.3,3.5c12.6,3.1,24.9,7.1,37.6,9.8l-0.1,0.3c0,12.2,0,24.5,0.1,36.7
		C200.8,339.2,200.8,339.5,200.8,339.5L200.8,339.5z"/>
	<path class="st2" d="M200.8,302.1v-56l-0.1-0.4c13.4,0.1,26.7,0.2,40.1,0.1c2.5,0,3.4,0.6,3.1,3.3c-1.3,13.3-2.4,26.6-3.5,39.9
		c-0.2,2-1,2.8-3,3.3c-12.3,3.2-24.5,6.7-36.7,10L200.8,302.1z"/>
	<path class="st4" d="M200.8,302.5c12.2-3.4,24.5-6.8,36.7-10c1.9-0.5,2.8-1.3,3-3.3c1.1-13.3,2.2-26.6,3.5-39.9
		c0.3-2.7-0.6-3.3-3.1-3.3c-13.4,0-26.7-0.1-40.1-0.1v-35.5c26.7,0,53.3-0.1,80-0.2c2.2,0,2.4,0.8,2.2,2.8
		c-1.8,19.4-3.4,38.8-5.1,58.3c-1.2,14.1-2.7,28.2-3.7,42.3c-0.3,4.4-1.7,6.4-6.1,7.6c-21.1,5.6-42.1,11.5-63.1,17.3
		c-1.4,0.4-2.8,0.6-4.2,0.8L200.8,302.5L200.8,302.5z"/>
	<path class="st5" d="M200.7,173.9v-35.3c6.2-0.1,12.5-0.2,18.7-0.2c22.2,0,44.5,0,66.7-0.1c2.6,0,3.5,0.4,3.2,3.4
		c-1.1,9.8-1.8,19.7-2.6,29.5c-0.1,1.7-0.3,2.9-2.5,2.9C256.4,174,228.6,174,200.7,173.9L200.7,173.9z"/>
	<path class="st0" d="M200.8,210c-14.8,0-29.6,0.1-44.4,0.2c-2.2,0-2.5-0.9-2.6-2.7c-0.9-10.2-1.8-20.4-2.9-30.6
		c-0.2-1.9,0.2-2.8,2.4-2.8c15.8,0.1,31.7,0.2,47.5,0.2L200.8,210L200.8,210z"/>
</g>
</svg>
