<?xml version="1.0" encoding="utf-8"?>
<!-- Generator: Adobe Illustrator 21.1.0, SVG Export Plug-In . SVG Version: 6.00 Build 0)  -->
<svg version="1.1" id="Слой_1" xmlns="http://www.w3.org/2000/svg" xmlns:xlink="http://www.w3.org/1999/xlink" x="0px" y="0px"
	 viewBox="0 0 400 400" style="enable-background:new 0 0 400 400;" xml:space="preserve">
<style type="text/css">
	.st0{fill:#EFDA4F;}
	.st1{fill:#323330;}
</style>
<g>
	<circle class="st0" cx="200" cy="200" r="200"/>
	<path class="st1" d="M308.5,335.4c-14.5-0.1-28.2-3-40.6-10.9c-8.9-5.7-15.9-13.3-21-22.7c-0.5-1.1-0.5-1.5,0.5-2.1
		c8.4-4.8,16.8-9.7,25.2-14.6c1.3-0.7,1.7-0.4,2.4,0.6c2.7,4.4,5.8,8.4,9.8,11.5c10.7,8.4,22.5,9.8,35.1,5.6
		c5.3-1.8,9.3-5.5,10.6-11.2c1.2-5.5,0-10.4-3.9-14.6c-2.6-2.8-6-4.6-9.4-6.4c-6.8-3.5-13.9-6.3-21-9.4c-9-3.9-17.7-8.5-25.1-15.2
		c-9.1-8.4-13.7-19-14.6-31.2c-0.6-9.4,0.7-18.4,5.5-26.7c6.2-10.8,15.7-17.6,27.6-20.8c14.8-3.8,29.3-3.4,43.3,3.1
		c9.7,4.5,16.3,12,21.6,21.1c0.5,0.7,0.3,1.1-0.4,1.5c-8.3,5.3-16.5,10.6-24.8,16c-0.8,0.5-1.1,0.4-1.5-0.5
		c-1.6-2.8-3.5-5.5-5.8-7.7c-6.5-6-14.1-7.5-22.3-4.6c-11.8,4-11.5,18.3-5.7,24.2c2.6,2.7,5.8,4.6,9.2,6.3c6.7,3.4,13.6,6,20.4,9
		c8.7,3.9,17,8.2,24.4,14.2c10.8,8.8,16.2,20.2,16.9,34.1c0.5,9.5-0.9,18.6-5.7,26.9c-6,10.5-15.3,16.9-26.5,20.7
		C325.1,334.4,316.8,335.3,308.5,335.4L308.5,335.4z M215.8,229.2c0,19.9,0.3,39.7-0.1,59.6c-0.2,10.8-3.1,20.9-9.8,29.5
		c-6.8,8.8-16,13.6-26.7,15.6c-13.4,2.6-26.7,2-39.4-3.6c-11.7-5.1-19.9-13.8-25.5-25.1c-0.5-1.1-0.2-1.5,0.6-2
		c8.5-5.1,17-10.2,25.4-15.4c0.9-0.5,1.3-0.5,1.8,0.5c1.8,3.4,3.9,6.6,6.3,9.5c6.8,8.5,18.3,8,24.8,5.1c5-2.3,6.9-6.8,7.9-11.8
		c0.5-2.8,0.6-5.7,0.6-8.7c0-37.7,0-75.6-0.1-113.3c0-1.8,0.5-2.2,2.2-2.1c10,0.1,20.1,0.1,30.2,0c1.5,0,1.9,0.4,1.9,1.9
		c-0.1,20.1,0,40.2,0,60.3C215.9,229.2,215.8,229.2,215.8,229.2L215.8,229.2z"/>
</g>
</svg>
