<?xml version="1.0" encoding="utf-8"?>
<!-- Generator: Adobe Illustrator 21.1.0, SVG Export Plug-In . SVG Version: 6.00 Build 0)  -->
<svg version="1.1" id="Слой_1" xmlns="http://www.w3.org/2000/svg" xmlns:xlink="http://www.w3.org/1999/xlink" x="0px" y="0px"
	 viewBox="0 0 323 216" style="enable-background:new 0 0 323 216;" xml:space="preserve">
<style type="text/css">
	.st0{fill:#969696;}
	.st1{fill:#BFBFBF;}
	.st2{fill:#A5A5A5;}
	.st3{fill:#AFAFAF;}
	.st4{fill:#A3A3A3;}
	.st5{fill:#A8A8A8;}
</style>
<path class="st0" d="M10.5,191.5c16.7,0.3,33.3,0.7,50,1c-0.3,3.7-0.7,7.3-1,11C43.2,199.5,26.8,195.5,10.5,191.5z"/>
<g>
	<path class="st1" d="M307,196H51c-6.6,0-12-5.4-12-12V19c0-6.6,5.4-12,12-12h256c6.6,0,12,5.4,12,12v165
		C319,190.6,313.6,196,307,196z"/>
</g>
<path class="st2" d="M46.5,210.5c-12-2.3-24-4.7-36-7c-1-2-2-4-3-6c-0.1-0.1-1.1-2.1,0-4c1-1.7,2.8-2,3-2c12,2,24,4,36,6
	C46.5,201.8,46.5,206.2,46.5,210.5z"/>
<g>
	<path class="st3" d="M47.5,196h264c4.1,0,7.5,3.4,7.5,7.5l0,0c0,4.1-3.4,7.5-7.5,7.5h-264c-4.1,0-7.5-3.4-7.5-7.5l0,0
		C40,199.4,43.4,196,47.5,196z"/>
</g>
<path class="st4" d="M174,67c-0.9,0.5-1,0.8-1,1c0.1,0.7,2.3,0.6,4,2c1.1,0.9,1.7,2.1,2,3c0.3,0,0.7,0,1,0c-0.5-1-1.4-2.6-3-4
	C175.9,68,174.8,67.4,174,67z"/>
<path class="st5" d="M167,101c-0.7,3.9,0.9,7.8,4,10c4,2.8,8.6,1.2,9,1c3.5,1.4,7.5,0.6,10-2c2.8-2.9,2.2-7.5,2-9
	c-0.2-1.9-0.9-3.8-1-4c-0.6-1.6-1.2-2.9-1.5-3.4c-0.5-0.8-0.6-1-1.2-2.1c-0.3-0.6-0.7-1.4-1.2-2.4c-0.9-1.9-1.2-2.9-1.9-4.6
	c-0.7-1.8-0.8-1.6-1.1-2.4c-1.6-4-0.5-5.9-2-8c-0.5-0.6-1.3-1.5-3-2c-0.9,0.3-2.1,0.8-3,2c-1.2,1.6-0.8,3.1-1,6
	c-0.1,1.6-0.5,4.9-2,8c-1.4,3-2.4,2.8-4,6C167.6,96.7,167.2,99.3,167,101z"/>
</svg>
