<?xml version="1.0" encoding="utf-8"?>
<!-- Generator: Adobe Illustrator 21.1.0, SVG Export Plug-In . SVG Version: 6.00 Build 0)  -->
<svg version="1.1" id="Слой_1" xmlns="http://www.w3.org/2000/svg" xmlns:xlink="http://www.w3.org/1999/xlink" x="0px" y="0px"
	 viewBox="0 0 405 407" style="enable-background:new 0 0 405 407;" xml:space="preserve">
<style type="text/css">
	.st0{fill:#383838;}
	.st1{fill:#6CDBF9;}
</style>
<circle class="st0" cx="202.6" cy="204" r="198"/>
<g>
	<path class="st1" d="M281.9,67.2c0.3,8.7-0.6,17.2-2.8,25.6c-1.5,5.8,0.3,8.7,5.9,10.4c11.7,3.4,22.4,8.6,32.4,15.7
		c19.5,13.9,19.8,35.2,0.6,49.8c-9.2,7-19.5,11.4-30.4,15.1c-9.8,3.4-9.8,3.8-7.8,13.8c2.4,12.1,3.4,24.4,1.2,36.7
		c-4.3,23.1-22.2,31.8-43.5,21.5c-10.1-4.9-19.2-11.1-27.2-18.7c-6.2-5.9-10.1-4.1-15.4,0.7c-10.8,9.9-22.8,18.1-37.3,21.5
		c-13.9,3.1-25.5-3.3-30.4-16.9c-5-14.2-4.1-28.6-1-42.9c2.5-11.4,1.9-12.1-9-16c-12.1-4.3-23.8-9.5-33.3-18.5
		c-13.6-13-13.5-28.9,0.1-42.1c9.6-9.2,21.6-14.5,34.1-18.7c9.8-3.3,10.1-3.7,8.3-14.2c-2.1-12.3-4.4-24.6-1.3-37.3
		c5.3-21.8,21.2-30.1,41.9-21c11,4.7,20.7,11.4,29.3,19.7c4.7,4.6,8.1,4.9,13,0.1c8.3-7.8,17.8-14.1,28-19
		c24.1-11.4,43.8,0.6,44.9,27.4C281.9,62.3,281.9,64.8,281.9,67.2L281.9,67.2z M203.1,104.1c-4.6,0-9.3,0.3-13.9-0.1
		c-5.7-0.4-9.5,1.6-12.7,6.4c-6.5,9.3-11.5,19.4-16.7,29.3c-1.6,3-1.2,5.8,0.3,8.9c5,10.3,10.6,20.3,17,29.8c2.3,3.3,5,4.8,9.1,5.4
		c8.2,1.2,16.3,0.8,24.4,0.9c9.9,0.1,17.5-2.9,22.5-12.6c17.9-34.9,18.4-21.6,2.4-51.8c-0.1-0.1-0.1-0.4-0.3-0.5
		c-12.3-17.8-6.2-15.2-27.4-15.5C206.3,104.1,204.7,104.1,203.1,104.1L203.1,104.1z M138.9,76c-0.9,7.2,1.2,14.5,2.4,21.7
		c0.7,4.4,2.9,6.4,7.8,5.4c7-1.5,14.1-3.3,21.5-3.6c4.4-0.1,7.6-2.4,10.2-6.2c4-5.8,8.6-11.1,13.3-16.4c3-3.6,3.3-6.6-0.3-9.7
		c-8.8-7.4-17.8-14.6-28.5-19c-11-4.5-20.9,0.3-24.8,11.5C138.9,65,138.5,70.2,138.9,76z M138.9,211.8c0,3.3-0.3,6.2,0,9
		c1.3,16.2,12.7,24,27.4,18.3c10.7-4.2,19.9-11.3,28.1-19.2c2.9-2.8,3-5.8,0.1-8.6c-5.6-5.3-9.8-11.8-14.7-17.8
		c-1.7-2.1-3.6-4.4-6.9-4.8c-7.8-0.9-15.6-1.9-23.3-3.8c-4.4-1.1-7.7,0.5-8.4,5.7C140.1,197.9,138.2,204.9,138.9,211.8L138.9,211.8z
		 M267.4,215.2c-0.4-9.4-1.2-16.6-2.7-23.7c-1.1-5.7-4.4-8-9.9-6.4c-5.2,1.5-10.3,2.1-15.6,2.7c-4.4,0.4-9.3,0.5-12.5,4.8
		c-5.2,6.9-10.6,13.5-16,20.2c-1.9,2.3-2.3,4.4,0.1,6.4c9.7,8.4,19,17.2,31.8,20.8c11.5,3.3,21.1-2,23.2-13.1
		C266.6,222.4,267.8,217.7,267.4,215.2L267.4,215.2z M267.1,74.3c0-1.6,0.1-3,0-4.6c-1.1-20.3-13.9-27.8-32.1-18.7
		c-8.6,4.2-15.9,10.2-22.8,16.7c-3.3,3-3.3,5.7-0.5,9c4.6,5.6,9.4,11.1,13.5,17.1c2.5,3.7,5.7,5.4,9.7,5.8c7,0.7,13.9,1.6,20.8,3.2
		c4.8,1.1,7.7-0.9,8.8-5.7C266.2,89.5,266.9,82,267.1,74.3L267.1,74.3z M256,143.2c1.1,9.5,6.4,17.1,8.6,25.6
		c1.5,5.7,5.4,7,10.1,5.3c11.4-4.2,22.8-8.5,31.4-17.8c7.7-8.4,8.4-15.6,0.8-23.9c-9.3-10.1-21.3-15.4-34.2-19.2
		c-2.4-0.7-5.3-0.8-6.4,2C262.6,124.7,258.5,133.9,256,143.2L256,143.2z M94.6,143.9c-0.7,4.8,1.3,8.5,4.5,11.9
		c8.4,9,19.2,13.8,30.5,17.6c7.2,2.4,8.8,1.1,11.9-6c6.8-14.7,10.2-29.3,0.8-44.3c-0.9-1.5-1.2-3.3-1.7-4.9
		c-1.5-4.6-4.5-6.2-9.1-4.6c-10.3,3.7-20.6,7.8-29,15.1C97.8,132.8,93.7,137,94.6,143.9z M203.7,189.5V189
		c-3.7,0.3-7.4,0.4-11.1,0.8c-2.5,0.3-4.4,1.9-3.3,4.5c2.7,6.2,6.5,12.2,12.6,14.7c4.9,2,7.2-4.5,10.1-7.8c1.5-1.6,2.8-3.4,4.1-5.2
		c3-3.6,1.3-5.8-2.5-6.4C210.4,189,207.1,189.5,203.7,189.5L203.7,189.5z M240.9,182.1c5.6-1.2,11-2.1,16.3-3.6c3-0.8,4-3.3,2.9-6.2
		c-1.7-4.5-3.3-9.1-5.3-13.5c-1.7-3.7-4.5-4.6-6.9-0.9c-3.7,5.7-7,11.7-10.2,17.8C236,178.9,236.6,181.7,240.9,182.1z M203.1,98.3
		c3.3,0,6.6,0.1,9.9-0.1c1.9-0.1,4.1-0.7,4.5-3c0.5-3-12.5-16.4-15.5-15.9c-0.8,0.1-1.7,0.5-2.4,1.1c-3.6,3.6-7.3,7-9.8,11.5
		c-2.3,3.8-0.7,6,3.3,6.4C196.5,98.5,199.8,98.3,203.1,98.3z M146.5,172.1c-0.1,3-0.1,6,3.6,6.9c4.8,1.1,9.4,2.3,14.2,2.9
		c3.8,0.5,6.6-1.3,4.5-5.4c-3.3-6.5-7.2-12.6-11-18.8c-1.9-2.9-4.5-3.2-6.1,0.1C149.3,162.5,147,167.1,146.5,172.1L146.5,172.1z
		 M243.1,106.6c-2-0.1-4.1-0.5-5.4,1.5c-1.5,2.3-0.1,4.2,1.1,6.1l8.4,14.3c2.7,4.5,5.2,4.5,7.7,0.1
		C263.9,112.9,261.2,107.7,243.1,106.6L243.1,106.6z M146.5,115.8c-0.1,4.2,2.9,8.1,4.4,12.5c1.9,5,4.4,5.3,7.2,0.8
		c3.6-5.6,6.8-11.4,10.1-17.1c1.1-1.9,1.6-3.7-0.7-5.2c-2.3-1.3-18,1.5-19.8,3.3C146.3,111.7,146.5,113.4,146.5,115.8L146.5,115.8z
		 M62,293.8c0-12.9,0.1-25.6-0.1-38.5c-0.1-5.2,2-7.2,7-7.2c10.3,0.1,20.8-0.1,31.2,0.1c13.7,0.4,24.5,9.4,26.4,21.5
		c2.4,15.4-3.4,26.1-17.6,31.4c-4.8,1.7-5,3.7-2.3,7.7c5.4,7.8,10.5,15.8,15.5,23.9c1.2,2,4.8,4.2,1.6,6.6c-3,2.3-7,2-9.5-1.1
		c-2.8-3.3-5-7.2-7.4-10.9c-3.2-4.8-6.2-9.7-9.3-14.5c-5.7-9-10.6-11.1-20.7-9c-3.6,0.7-4.6,2.8-4.5,6.1c0.1,7.7,0,15.5,0,23.2
		c0,2.9-0.3,6.1-3.8,6.9c-4.8,1.2-6.2-1.5-6.2-5.8C62,320.7,62,307.4,62,293.8L62,293.8z M70.3,277.2v4.6c-0.1,16-1.1,15.1,15.1,15
		c6.5-0.1,13.3,0.9,19.5-2.4c7.7-4.1,12.7-13.1,11-20.8c-2.1-9.3-9.4-15.2-19-15.4c-6.9,0-13.7,0.1-20.6,0c-4.6-0.1-6.4,1.9-6.2,6.4
		C70.4,268.7,70.3,273,70.3,277.2L70.3,277.2z M249.2,316.7v17.2c0,2.9-0.1,5.8-3.6,7.2c-2.9,1.1-5-0.1-6.8-2.5
		c-2.4-3.4-4.6-0.9-6.8,0.3c-7.4,4.4-15.2,6.1-23.5,3.3c-11.4-3.7-16.7-13.5-15.1-24.5c1.9-13.1,15.1-18.6,24.3-17.6
		c5.4,0.5,10.9,1.3,15.5,4.9c3.7,2.9,5.4,0.9,5.8-3.2c1.5-14.7-9.7-23.3-24.9-19.2c-3.4,0.9-6.6,2.4-9.5,4.4c-1.9,1.3-4,2.7-5.7,0.3
		c-1.9-2.5-0.5-4.6,1.5-6.4c5.3-4.5,11.7-6.4,18.2-7.2c18.6-2.3,30.1,8,30.6,26.7C249.3,305.7,249.3,311.1,249.2,316.7L249.2,316.7z
		 M234.3,323c0-9.4-8-16-19.2-16.2c-10.9-0.1-19,6.6-19.1,15.6c-0.1,9,7.8,16.3,17.9,16.3C225.2,339,234.3,331.8,234.3,323
		L234.3,323z M161.5,311h-19.9c-6.4,0.1-7.7,2.1-5.6,8.2c5.2,14.9,23.5,21.1,37.9,12.7c0.5-0.3,1.1-0.8,1.6-1.2
		c2.4-1.6,4.8-2.9,6.8,0.3c1.9,3-0.5,4.2-2.5,5.7c-17.2,12.5-43.1,6.4-51.8-12.9c-8.6-18.8,0-43.6,21.5-49.9c19.2-5.6,41,11.1,40,31
		c-0.3,4.2-2.9,5.6-6.8,5.6C175.5,311,168.5,310.9,161.5,311z M156.3,280.8c-11,0-19.7,7.3-22.2,18.4c-1,4.6,1,6.8,5.3,6.8
		c11.1,0.1,22.4,0.1,33.6,0c5.2,0,6.7-2.8,5.4-7.8C176.1,288,166.9,280.7,156.3,280.8L156.3,280.8z M264.4,313.3
		c0.5,7,3.2,16,12.6,21.1c8.6,4.6,17,3.4,24.9-2c2.4-1.6,4.9-2.9,6.9,0.1c2,2.9-0.1,4.9-2.1,6.8c-12.2,10.5-39.9,8.4-48.9-13.3
		c-8.2-19.6-0.1-41.2,19.2-48.9c9.5-3.8,24-1.2,30.4,5.6c1.7,1.9,3.3,3.8,1.5,6.4c-2,2.7-4.5,1.3-6.4-0.1c-8.2-6.5-17.2-6.9-26-1.9
		C267.7,292.1,264.3,300.5,264.4,313.3z M335.6,344.8c-7.2-0.1-10.9-3.7-12-11.5c-1.8-12.9-0.6-26-0.8-39c-0.1-4.7,0-8.9-6.1-8.5
		c-2,0.1-3.5-1.2-3.6-3.5c-0.1-2.3,1-4.2,2.9-4.3c6.8-0.4,7.2-5.2,6.8-10.8c-0.1-1.7,0.2-3.4,0.7-5.1c0.6-2,2.2-2.3,3.9-2.2
		c1.6,0.1,2.6,1.2,3,2.7c0.2,1.4,0.4,3,0.2,4.6c-0.7,6.7,0.6,11.1,8.1,10.3c2.3-0.3,4.9,1,4.7,4.6c-0.2,3.4-2.5,4.2-5.1,3.9
		c-5.7-0.5-7.8,2.3-7.7,8.5c0.2,9.5,0,19.1,0.1,28.7c0.1,10.3,1.4,11.9,10.5,12.9c2.3,0.3,3.9,1.2,4.4,3.5c0.6,2.6-1.7,3.1-3.1,3.9
		C340.4,344.7,338,344.8,335.6,344.8L335.6,344.8z"/>
	<path class="st1" d="M221.1,143.8c1.3,12.2-10.1,19.1-18.3,19.4c-9.7,0.4-19.1-9.7-19-19.4c0.1-10.2,9-19,19.2-18.7
		C213.2,125.2,222.6,134.1,221.1,143.8z"/>
</g>
</svg>
